<?xml version="1.0" encoding="utf-8"?><svg xmlns="http://www.w3.org/2000/svg" xmlns:xlink="http://www.w3.org/1999/xlink" width="2400" height="1600" preserveAspectRatio="xMidYMid" viewBox="0 0 2400 1600" style="z-index:1;margin-right:-1.6px;display:block;background-color:rgb(241, 242, 243);animation-play-state:paused" ><g transform="translate(1200,800) scale(1,1) translate(-1200,-800)" style="transform:matrix(1, 0, 0, 1, 0, 0);animation-play-state:paused" ><g transform="translate(1920.1066268452412,165.14060928929428) scale(100)" opacity="0.4" style="transform:matrix(100, 0, 0, 100, 1920.11, 165.141);opacity:0.4;animation-play-state:paused" ><path d="M9.6 0 C9.6 2.496 2.4960000000000004 9.6 5.878304635907295e-16 9.6 S-9.6 2.4960000000000013 -9.6 1.175660927181459e-15 S-2.4960000000000018 -9.6 -1.7634913907721885e-15 -9.6 S9.6 -2.496000000000002 9.6 -2.351321854362918e-15" fill="#d8ebf9" stroke-width="0" transform="matrix(1,0,0,1,0,0)" style="transform:matrix(1, 0, 0, 1, 0, 0);animation-play-state:paused" ></path></g>
<g transform="translate(2064.1279522142895,38.16873114715304) scale(100)" opacity="0.4" style="transform:matrix(100, 0, 0, 100, 2064.13, 38.1687);opacity:0.4;animation-play-state:paused" ><path d="M11.52 0 C11.52 2.9952 2.995200000000001 11.52 7.053965563088755e-16 11.52 S-11.52 2.9952000000000014 -11.52 1.410793112617751e-15 S-2.9952000000000023 -11.52 -2.116189668926626e-15 -11.52 S11.52 -2.9952000000000027 11.52 -2.821586225235502e-15" fill="#5699d2" stroke-width="0" transform="matrix(1,0,0,1,0,0)" style="transform:matrix(1, 0, 0, 1, 0, 0);animation-play-state:paused" ></path></g></g></svg>